<mxfile host="app.diagrams.net" modified="2024-06-09T11:00:25.160Z" agent="Mozilla/5.0 (Macintosh; Intel Mac OS X 10_15_7) AppleWebKit/537.36 (KHTML, like Gecko) Chrome/125.0.0.0 Safari/537.36" etag="0bCIeaWKQYdAOkfdcoYE" version="24.5.2" type="device">
  <diagram name="Page-1" id="P01__zdZapkFA6skGQUz">
    <mxGraphModel dx="920" dy="663" grid="1" gridSize="10" guides="1" tooltips="1" connect="1" arrows="1" fold="1" page="1" pageScale="1" pageWidth="850" pageHeight="1100" math="0" shadow="0">
      <root>
        <mxCell id="0" />
        <mxCell id="1" parent="0" />
        <mxCell id="rNIS2ew6W5k7fNmO-Z_g-6" style="edgeStyle=orthogonalEdgeStyle;rounded=0;orthogonalLoop=1;jettySize=auto;html=1;entryX=0.5;entryY=0;entryDx=0;entryDy=0;" edge="1" parent="1" source="rNIS2ew6W5k7fNmO-Z_g-1" target="rNIS2ew6W5k7fNmO-Z_g-2">
          <mxGeometry relative="1" as="geometry">
            <mxPoint x="360" y="310" as="targetPoint" />
          </mxGeometry>
        </mxCell>
        <mxCell id="rNIS2ew6W5k7fNmO-Z_g-7" style="edgeStyle=orthogonalEdgeStyle;rounded=0;orthogonalLoop=1;jettySize=auto;html=1;entryX=0.5;entryY=0;entryDx=0;entryDy=0;" edge="1" parent="1" source="rNIS2ew6W5k7fNmO-Z_g-1" target="rNIS2ew6W5k7fNmO-Z_g-3">
          <mxGeometry relative="1" as="geometry" />
        </mxCell>
        <mxCell id="rNIS2ew6W5k7fNmO-Z_g-1" value="&lt;p style=&quot;margin: 0px; font-variant-numeric: normal; font-variant-east-asian: normal; font-variant-alternates: normal; font-kerning: auto; font-optical-sizing: auto; font-feature-settings: normal; font-variation-settings: normal; font-variant-position: normal; font-stretch: normal; line-height: normal;&quot; class=&quot;p1&quot;&gt;GRAZPEDWRI-D Dataset&lt;/p&gt;&lt;p style=&quot;margin: 0px; font-variant-numeric: normal; font-variant-east-asian: normal; font-variant-alternates: normal; font-kerning: auto; font-optical-sizing: auto; font-feature-settings: normal; font-variation-settings: normal; font-variant-position: normal; font-stretch: normal; line-height: normal;&quot; class=&quot;p1&quot;&gt;20,327 images with its respective label files&lt;/p&gt;&lt;p style=&quot;margin: 0px; font-variant-numeric: normal; font-variant-east-asian: normal; font-variant-alternates: normal; font-kerning: auto; font-optical-sizing: auto; font-feature-settings: normal; font-variation-settings: normal; font-variant-position: normal; font-stretch: normal; line-height: normal;&quot; class=&quot;p1&quot;&gt;Fracture: 13,550 images&lt;/p&gt;&lt;p style=&quot;margin: 0px; font-variant-numeric: normal; font-variant-east-asian: normal; font-variant-alternates: normal; font-kerning: auto; font-optical-sizing: auto; font-feature-settings: normal; font-variation-settings: normal; font-variant-position: normal; font-stretch: normal; line-height: normal;&quot; class=&quot;p1&quot;&gt;No fracture: 6,777 images&lt;/p&gt;" style="whiteSpace=wrap;html=1;align=center;" vertex="1" parent="1">
          <mxGeometry x="260" y="170" width="250" height="110" as="geometry" />
        </mxCell>
        <mxCell id="rNIS2ew6W5k7fNmO-Z_g-8" style="edgeStyle=orthogonalEdgeStyle;rounded=0;orthogonalLoop=1;jettySize=auto;html=1;exitX=0.5;exitY=1;exitDx=0;exitDy=0;entryX=0.5;entryY=0;entryDx=0;entryDy=0;" edge="1" parent="1" source="rNIS2ew6W5k7fNmO-Z_g-2" target="rNIS2ew6W5k7fNmO-Z_g-4">
          <mxGeometry relative="1" as="geometry" />
        </mxCell>
        <mxCell id="rNIS2ew6W5k7fNmO-Z_g-2" value="&lt;p style=&quot;margin: 0px; font-variant-numeric: normal; font-variant-east-asian: normal; font-variant-alternates: normal; font-kerning: auto; font-optical-sizing: auto; font-feature-settings: normal; font-variation-settings: normal; font-variant-position: normal; font-stretch: normal; line-height: normal;&quot; class=&quot;p1&quot;&gt;Subsample for ML&lt;/p&gt;&lt;p style=&quot;margin: 0px; font-variant-numeric: normal; font-variant-east-asian: normal; font-variant-alternates: normal; font-kerning: auto; font-optical-sizing: auto; font-feature-settings: normal; font-variation-settings: normal; font-variant-position: normal; font-stretch: normal; line-height: normal;&quot; class=&quot;p1&quot;&gt;800 images with labels&lt;/p&gt;&lt;p style=&quot;margin: 0px; font-variant-numeric: normal; font-variant-east-asian: normal; font-variant-alternates: normal; font-kerning: auto; font-optical-sizing: auto; font-feature-settings: normal; font-variation-settings: normal; font-variant-position: normal; font-stretch: normal; line-height: normal;&quot; class=&quot;p1&quot;&gt;Fracture: 500 images&lt;/p&gt;&lt;p style=&quot;margin: 0px; font-variant-numeric: normal; font-variant-east-asian: normal; font-variant-alternates: normal; font-kerning: auto; font-optical-sizing: auto; font-feature-settings: normal; font-variation-settings: normal; font-variant-position: normal; font-stretch: normal; line-height: normal;&quot; class=&quot;p1&quot;&gt;No fracture: 300 images&lt;/p&gt;" style="whiteSpace=wrap;html=1;align=center;" vertex="1" parent="1">
          <mxGeometry x="170" y="360" width="150" height="80" as="geometry" />
        </mxCell>
        <mxCell id="rNIS2ew6W5k7fNmO-Z_g-9" style="edgeStyle=orthogonalEdgeStyle;rounded=0;orthogonalLoop=1;jettySize=auto;html=1;entryX=0.5;entryY=0;entryDx=0;entryDy=0;" edge="1" parent="1" source="rNIS2ew6W5k7fNmO-Z_g-3" target="rNIS2ew6W5k7fNmO-Z_g-5">
          <mxGeometry relative="1" as="geometry" />
        </mxCell>
        <mxCell id="rNIS2ew6W5k7fNmO-Z_g-3" value="&lt;p style=&quot;margin: 0px; font-variant-numeric: normal; font-variant-east-asian: normal; font-variant-alternates: normal; font-kerning: auto; font-optical-sizing: auto; font-feature-settings: normal; font-variation-settings: normal; font-variant-position: normal; font-stretch: normal; line-height: normal;&quot; class=&quot;p1&quot;&gt;Subsample for DL&lt;/p&gt;&lt;p style=&quot;margin: 0px; font-variant-numeric: normal; font-variant-east-asian: normal; font-variant-alternates: normal; font-kerning: auto; font-optical-sizing: auto; font-feature-settings: normal; font-variation-settings: normal; font-variant-position: normal; font-stretch: normal; line-height: normal;&quot; class=&quot;p1&quot;&gt;1,000 images with labels&lt;/p&gt;&lt;p style=&quot;margin: 0px; font-variant-numeric: normal; font-variant-east-asian: normal; font-variant-alternates: normal; font-kerning: auto; font-optical-sizing: auto; font-feature-settings: normal; font-variation-settings: normal; font-variant-position: normal; font-stretch: normal; line-height: normal;&quot; class=&quot;p1&quot;&gt;Fracture: 666 images&lt;/p&gt;&lt;p style=&quot;margin: 0px; font-variant-numeric: normal; font-variant-east-asian: normal; font-variant-alternates: normal; font-kerning: auto; font-optical-sizing: auto; font-feature-settings: normal; font-variation-settings: normal; font-variant-position: normal; font-stretch: normal; line-height: normal;&quot; class=&quot;p1&quot;&gt;No fracture: 334 images&lt;/p&gt;" style="whiteSpace=wrap;html=1;align=center;" vertex="1" parent="1">
          <mxGeometry x="450" y="360" width="150" height="80" as="geometry" />
        </mxCell>
        <mxCell id="rNIS2ew6W5k7fNmO-Z_g-4" value="TrainVal: 75%&lt;div&gt;Test: 25%&lt;/div&gt;" style="whiteSpace=wrap;html=1;" vertex="1" parent="1">
          <mxGeometry x="185" y="510" width="120" height="60" as="geometry" />
        </mxCell>
        <mxCell id="rNIS2ew6W5k7fNmO-Z_g-5" value="Train: 70%&lt;div&gt;Validation: 10%&lt;br&gt;&lt;div&gt;Test: 20&lt;span style=&quot;background-color: initial;&quot;&gt;%&lt;/span&gt;&lt;/div&gt;&lt;/div&gt;" style="whiteSpace=wrap;html=1;" vertex="1" parent="1">
          <mxGeometry x="465" y="510" width="120" height="60" as="geometry" />
        </mxCell>
        <mxCell id="rNIS2ew6W5k7fNmO-Z_g-10" value="Split" style="whiteSpace=wrap;html=1;strokeColor=none;" vertex="1" parent="1">
          <mxGeometry x="217.5" y="460" width="55" height="20" as="geometry" />
        </mxCell>
        <mxCell id="rNIS2ew6W5k7fNmO-Z_g-12" value="Split" style="whiteSpace=wrap;html=1;strokeColor=none;" vertex="1" parent="1">
          <mxGeometry x="497.5" y="460" width="55" height="20" as="geometry" />
        </mxCell>
      </root>
    </mxGraphModel>
  </diagram>
</mxfile>
